<svg xmlns="http://www.w3.org/2000/svg" viewBox="0 0 1732 334" width="1732" height="334">
<path d="M 1464.0,60.0 L 1446.0,82.0 L 1412.0,211.0 L 1412.0,227.0 L 1416.0,237.0 L 1432.0,249.0 L 1449.0,253.0 L 1520.0,253.0 L 1546.0,285.0 L 1627.0,285.0 L 1597.0,252.0 L 1625.0,244.0 L 1637.0,235.0 L 1646.0,220.0 L 1680.0,92.0 L 1680.0,74.0 L 1675.0,64.0 L 1664.0,55.0 L 1644.0,50.0 L 1494.0,50.0 Z M 1513.0,101.0 L 1602.0,101.0 L 1605.0,104.0 L 1584.0,189.0 L 1578.0,199.0 L 1493.0,201.0 L 1488.0,197.0 L 1494.0,164.0 L 1510.0,104.0 Z" fill="#FFFFFF" fill-rule="evenodd"/><path d="M 1432.0,50.0 L 1362.0,50.0 L 1309.0,252.0 L 1381.0,252.0 Z" fill="#FFFFFF" fill-rule="evenodd"/><path d="M 1710.0,76.0 L 1705.0,59.0 L 1689.0,38.0 L 1669.0,26.0 L 1644.0,21.0 L 65.0,32.0 L 69.0,56.0 L 68.0,71.0 L 22.0,240.0 L 1280.0,241.0 L 1282.0,244.0 L 1266.0,279.0 L 1508.0,280.0 L 1520.0,299.0 L 1535.0,312.0 L 1693.0,312.0 L 1647.0,264.0 L 1665.0,246.0 L 1673.0,229.0 L 1706.0,107.0 Z M 1698.0,73.0 L 1697.0,97.0 L 1663.0,225.0 L 1653.0,242.0 L 1629.0,261.0 L 1665.0,300.0 L 1662.0,302.0 L 1542.0,302.0 L 1529.0,292.0 L 1514.0,269.0 L 1287.0,269.0 L 1284.0,266.0 L 1298.0,231.0 L 37.0,229.0 L 80.0,69.0 L 77.0,45.0 L 79.0,42.0 L 1345.0,39.0 L 1262.0,34.0 L 1646.0,32.0 L 1666.0,37.0 L 1679.0,44.0 L 1692.0,58.0 Z" fill="#FFFFFF" fill-rule="evenodd"/>
<path d="M 1150.0,64.0 L 1115.0,202.0 L 1260.0,203.0 L 1269.0,167.0 L 1178.0,168.0 L 1175.0,163.0 L 1181.0,147.0 L 1257.0,147.0 L 1263.0,118.0 L 1189.0,118.0 L 1187.0,115.0 L 1191.0,100.0 L 1280.0,99.0 L 1289.0,64.0 Z" fill="#5EB6F0" fill-rule="evenodd"/><path d="M 977.0,64.0 L 941.0,202.0 L 990.0,203.0 L 1010.0,135.0 L 1049.0,203.0 L 1099.0,203.0 L 1135.0,64.0 L 1085.0,64.0 L 1067.0,132.0 L 1028.0,64.0 Z" fill="#5EB6F0" fill-rule="evenodd"/><path d="M 962.0,64.0 L 912.0,64.0 L 877.0,203.0 L 926.0,203.0 Z" fill="#5EB6F0" fill-rule="evenodd"/><path d="M 784.0,64.0 L 745.0,202.0 L 863.0,203.0 L 873.0,167.0 L 806.0,166.0 L 834.0,64.0 Z" fill="#5EB6F0" fill-rule="evenodd"/><path d="M 590.0,64.0 L 554.0,202.0 L 692.0,203.0 L 702.0,168.0 L 616.0,168.0 L 613.0,166.0 L 619.0,147.0 L 693.0,147.0 L 699.0,118.0 L 627.0,118.0 L 629.0,101.0 L 717.0,99.0 L 726.0,64.0 Z" fill="#5EB6F0" fill-rule="evenodd"/><path d="M 242.0,202.0 L 378.0,203.0 L 387.0,176.0 L 395.0,195.0 L 415.0,203.0 L 506.0,203.0 L 520.0,200.0 L 535.0,192.0 L 545.0,178.0 L 575.0,64.0 L 525.0,65.0 L 502.0,157.0 L 491.0,168.0 L 449.0,168.0 L 441.0,161.0 L 466.0,64.0 L 417.0,64.0 L 389.0,167.0 L 303.0,167.0 L 302.0,157.0 L 327.0,64.0 L 278.0,64.0 Z" fill="#5EB6F0" fill-rule="evenodd"/><path d="M 110.0,64.0 L 73.0,203.0 L 194.0,203.0 L 221.0,195.0 L 232.0,183.0 L 240.0,160.0 L 239.0,145.0 L 227.0,134.0 L 239.0,128.0 L 248.0,117.0 L 254.0,92.0 L 249.0,75.0 L 240.0,68.0 L 223.0,64.0 Z M 132.0,166.0 L 138.0,147.0 L 186.0,147.0 L 191.0,153.0 L 188.0,164.0 L 183.0,168.0 Z M 145.0,118.0 L 150.0,99.0 L 198.0,99.0 L 203.0,105.0 L 201.0,114.0 L 194.0,120.0 Z" fill="#5EB6F0" fill-rule="evenodd"/>
</svg>